<svg width="512" height="512" viewBox="0 0 512 512" fill="none" xmlns="http://www.w3.org/2000/svg">
<path d="M20.7566 207.568C19.3103 207.568 17.9003 207.115 16.7248 206.272C15.5493 205.429 14.6675 204.239 14.2033 202.87C13.739 201.5 13.7157 200.019 14.1366 198.635C14.5576 197.251 15.4015 196.034 16.5499 195.155L99.577 131.633C101.038 130.558 102.862 130.099 104.657 130.356C106.452 130.612 108.075 131.563 109.176 133.004C110.277 134.445 110.768 136.261 110.544 138.061C110.32 139.86 109.398 141.5 107.977 142.627L24.9495 206.142C23.7485 207.069 22.2736 207.57 20.7566 207.568V207.568Z" fill="#00838C"/>
<path d="M491.243 498.162H20.7568C18.9218 498.162 17.1619 497.433 15.8644 496.136C14.5668 494.838 13.8379 493.078 13.8379 491.243V200.649C13.8379 198.814 14.5668 197.054 15.8644 195.756C17.1619 194.459 18.9218 193.73 20.7568 193.73C22.5918 193.73 24.3517 194.459 25.6492 195.756C26.9468 197.054 27.6757 198.814 27.6757 200.649V484.324H484.324V200.649C484.324 198.814 485.053 197.054 486.351 195.756C487.648 194.459 489.408 193.73 491.243 193.73C493.078 193.73 494.838 194.459 496.136 195.756C497.433 197.054 498.162 198.814 498.162 200.649V491.243C498.162 493.078 497.433 494.838 496.136 496.136C494.838 497.433 493.078 498.162 491.243 498.162Z" fill="#00838C"/>
<path d="M256 372.307C231.69 372.339 208.127 363.906 189.357 348.457L16.3839 205.99C14.9673 204.823 14.0723 203.141 13.8958 201.314C13.7194 199.487 14.2759 197.665 15.443 196.248C16.61 194.832 18.2921 193.937 20.119 193.76C21.946 193.584 23.7682 194.14 25.1848 195.307L198.158 337.775C214.461 351.164 234.904 358.483 256 358.483C277.096 358.483 297.539 351.164 313.842 337.775L486.815 195.307C488.232 194.14 490.054 193.584 491.881 193.76C493.708 193.937 495.39 194.832 496.557 196.248C497.724 197.665 498.281 199.487 498.104 201.314C497.928 203.141 497.033 204.823 495.616 205.99L322.643 348.457C303.873 363.906 280.31 372.339 256 372.307V372.307Z" fill="#00838C"/>
<path d="M491.243 498.162C489.64 498.161 488.087 497.604 486.85 496.585L310.417 351.287C309.716 350.71 309.135 349.999 308.708 349.197C308.281 348.395 308.017 347.516 307.929 346.611C307.753 344.784 308.309 342.962 309.476 341.546C310.643 340.129 312.326 339.234 314.152 339.057C315.979 338.881 317.802 339.438 319.218 340.605L495.651 485.902C496.752 486.808 497.546 488.033 497.924 489.408C498.302 490.783 498.246 492.242 497.764 493.584C497.281 494.926 496.396 496.086 495.229 496.906C494.062 497.725 492.67 498.164 491.243 498.162Z" fill="#00838C"/>
<path d="M20.7568 498.162C19.3306 498.164 17.9386 497.725 16.7714 496.906C15.6042 496.086 14.7188 494.926 14.2363 493.584C13.7538 492.242 13.6979 490.783 14.0762 489.408C14.4544 488.033 15.2484 486.808 16.3495 485.902L192.782 340.605C194.199 339.438 196.021 338.881 197.848 339.057C199.675 339.234 201.357 340.129 202.524 341.546C203.691 342.962 204.247 344.784 204.071 346.611C203.894 348.438 202.999 350.12 201.583 351.287L25.1503 496.585C23.9128 497.604 22.3599 498.161 20.7568 498.162Z" fill="#00838C"/>
<path d="M334.454 87.6628C332.935 87.6614 331.46 87.1605 330.254 86.2375L256 29.4678L181.746 86.2375C180.288 87.3522 178.447 87.8422 176.628 87.5996C174.809 87.3569 173.161 86.4016 172.046 84.9436C170.931 83.4857 170.441 81.6447 170.684 79.8255C170.926 78.0064 171.882 76.3581 173.34 75.2433L251.8 15.2632C253.007 14.3419 254.482 13.8428 256 13.8428C257.518 13.8428 258.994 14.3419 260.2 15.2632L338.66 75.2433C339.826 76.1174 340.686 77.3372 341.118 78.7287C341.549 80.1202 341.531 81.6125 341.064 82.9928C340.598 84.3732 339.708 85.5711 338.521 86.4158C337.334 87.2606 335.911 87.7091 334.454 87.6974V87.6628Z" fill="#00838C"/>
<path d="M491.243 207.568C489.726 207.57 488.251 207.069 487.05 206.142L404.023 142.627C402.602 141.5 401.68 139.86 401.456 138.061C401.231 136.261 401.723 134.445 402.824 133.004C403.925 131.563 405.547 130.612 407.343 130.356C409.138 130.099 410.962 130.558 412.423 131.633L495.45 195.155C496.598 196.034 497.442 197.251 497.863 198.635C498.284 200.019 498.261 201.5 497.797 202.87C497.332 204.239 496.45 205.429 495.275 206.272C494.1 207.115 492.69 207.568 491.243 207.568V207.568Z" fill="#00838C"/>
<path d="M408.216 275.927C406.381 275.927 404.621 275.198 403.324 273.9C402.026 272.603 401.297 270.843 401.297 269.008V87.6628H110.703V269.008C110.703 270.843 109.974 272.603 108.676 273.9C107.379 275.198 105.619 275.927 103.784 275.927C101.949 275.927 100.189 275.198 98.8913 273.9C97.5937 272.603 96.8647 270.843 96.8647 269.008V80.7439C96.8647 78.9089 97.5937 77.149 98.8913 75.8515C100.189 74.5539 101.949 73.825 103.784 73.825H408.216C410.051 73.825 411.811 74.5539 413.109 75.8515C414.406 77.149 415.135 78.9089 415.135 80.7439V269.008C415.135 270.843 414.406 272.603 413.109 273.9C411.811 275.198 410.051 275.927 408.216 275.927Z" fill="#00838C"/>
<path d="M351.135 152.216H160.865C159.03 152.216 157.27 151.487 155.973 150.19C154.675 148.892 153.946 147.132 153.946 145.297C153.946 143.462 154.675 141.702 155.973 140.405C157.27 139.107 159.03 138.378 160.865 138.378H351.135C352.97 138.378 354.73 139.107 356.028 140.405C357.325 141.702 358.054 143.462 358.054 145.297C358.054 147.132 357.325 148.892 356.028 150.19C354.73 151.487 352.97 152.216 351.135 152.216Z" fill="#00838C"/>
<path d="M351.135 202.378H160.865C159.03 202.378 157.27 201.649 155.973 200.352C154.675 199.054 153.946 197.294 153.946 195.459C153.946 193.624 154.675 191.865 155.973 190.567C157.27 189.269 159.03 188.541 160.865 188.541H351.135C352.97 188.541 354.73 189.269 356.028 190.567C357.325 191.865 358.054 193.624 358.054 195.459C358.054 197.294 357.325 199.054 356.028 200.352C354.73 201.649 352.97 202.378 351.135 202.378Z" fill="#00838C"/>
<path d="M351.135 252.54H160.865C159.03 252.54 157.27 251.812 155.973 250.514C154.675 249.216 153.946 247.457 153.946 245.622C153.946 243.787 154.675 242.027 155.973 240.729C157.27 239.432 159.03 238.703 160.865 238.703H351.135C352.97 238.703 354.73 239.432 356.028 240.729C357.325 242.027 358.054 243.787 358.054 245.622C358.054 247.457 357.325 249.216 356.028 250.514C354.73 251.812 352.97 252.54 351.135 252.54Z" fill="#00838C"/>
</svg>
