<?xml version="1.0" standalone="no"?>
<!DOCTYPE svg PUBLIC "-//W3C//DTD SVG 20010904//EN"
 "http://www.w3.org/TR/2001/REC-SVG-20010904/DTD/svg10.dtd">
<svg version="1.0" xmlns="http://www.w3.org/2000/svg"
 width="161.000000pt" height="114.000000pt" viewBox="0 0 161.000000 114.000000"
 preserveAspectRatio="xMidYMid meet">
<metadata>
Created by potrace 1.16, written by Peter Selinger 2001-2019
</metadata>
<g transform="translate(0.000000,114.000000) scale(0.100000,-0.100000)"
fill="#000000" stroke="none">
<path d="M388 961 c-76 -25 -118 -52 -177 -116 -224 -246 -47 -646 289 -648
92 -1 159 20 232 72 l53 39 48 -35 c73 -54 139 -75 232 -76 175 -1 325 108
376 274 18 59 20 88 17 259 l-3 192 -34 30 c-28 25 -39 29 -69 24 -20 -3 -47
-17 -61 -31 -26 -25 -26 -27 -31 -228 -5 -212 -7 -222 -57 -269 -92 -87 -224
-73 -300 34 -56 78 -116 97 -180 58 -18 -10 -43 -37 -57 -58 -69 -110 -220
-121 -310 -22 -39 43 -51 88 -43 156 10 95 92 164 193 164 59 0 95 -18 164
-82 61 -58 100 -63 149 -22 57 47 39 118 -48 196 -110 99 -250 131 -383 89z"/>
</g>
</svg>
