<?xml version="1.0" standalone="no"?>
<!DOCTYPE svg PUBLIC "-//W3C//DTD SVG 20010904//EN"
 "http://www.w3.org/TR/2001/REC-SVG-20010904/DTD/svg10.dtd">
<svg version="1.0" xmlns="http://www.w3.org/2000/svg"
 width="346.000000pt" height="346.000000pt" viewBox="0 0 346.000000 346.000000"
 preserveAspectRatio="xMidYMid meet">
<metadata>
Created by potrace 1.11, written by Peter Selinger 2001-2013
</metadata>
<g transform="translate(0.000000,346.000000) scale(0.100000,-0.100000)"
fill="#000000" stroke="none">
<path d="M937 3093 c-2 -1 -47 -3 -101 -4 -174 -3 -268 -30 -394 -113 -219
-143 -397 -374 -430 -556 -16 -85 -13 -419 4 -490 15 -67 75 -192 129 -275 40
-60 138 -163 207 -218 93 -74 276 -157 378 -172 121 -17 561 -26 647 -12 94
14 104 37 105 227 1 153 -4 170 -54 196 -25 13 -70 17 -212 19 -390 6 -485 28
-609 145 -111 103 -147 199 -141 379 3 93 26 154 92 244 104 140 171 165 512
192 91 7 179 24 211 41 87 45 186 200 196 308 8 93 13 91 -290 91 -137 0 -249
-1 -250 -2z"/>
<path d="M2330 3089 c-19 -5 -48 -11 -64 -14 -16 -3 -62 -19 -101 -36 -263
-109 -481 -340 -550 -582 -21 -76 -25 -101 -32 -217 -9 -134 -10 -1627 -1
-1740 9 -115 21 -140 67 -140 43 0 113 21 169 49 58 30 154 122 179 172 36 72
40 129 48 649 14 899 19 1048 36 1115 33 124 170 247 317 284 296 76 583 -166
567 -478 -9 -170 -107 -318 -262 -395 -72 -36 -106 -43 -248 -51 -274 -15
-307 -22 -325 -71 -13 -33 -6 -281 9 -317 20 -49 64 -60 251 -59 339 1 461 28
627 138 186 124 320 295 387 496 36 106 38 119 42 268 3 120 1 146 -22 235
-44 174 -127 310 -269 444 -203 189 -361 253 -640 256 -82 1 -166 -1 -185 -6z"/>
</g>
</svg>
